<svg xmlns="http://www.w3.org/2000/svg" x="0px" y="0px"
width="28" height="28"
viewBox="0 0 172 172"
style=" fill:#000000;"><g fill="none" fill-rule="nonzero" stroke="none" stroke-width="1" stroke-linecap="butt" stroke-linejoin="miter" stroke-miterlimit="10" stroke-dasharray="" stroke-dashoffset="0" font-family="none" font-weight="none" font-size="none" text-anchor="none" style="mix-blend-mode: normal"><path d="M0,172v-172h172v172z" fill="none"></path><path d="M34.4,172c-18.9986,0 -34.4,-15.4014 -34.4,-34.4v-103.2c0,-18.9986 15.4014,-34.4 34.4,-34.4h103.2c18.9986,0 34.4,15.4014 34.4,34.4v103.2c0,18.9986 -15.4014,34.4 -34.4,34.4z" fill="#10c4bd"></path><g fill="#ffffff"><path d="M76.25333,37.26667l-4.87333,4.87333h-19.49333c-2.924,0 -4.87333,1.94933 -4.87333,4.87333c0,2.924 1.94933,4.87333 4.87333,4.87333h9.74667h48.73333h9.74667c2.924,0 4.87333,-1.94933 4.87333,-4.87333c0,-2.924 -1.94933,-4.87333 -4.87333,-4.87333h-19.49333l-4.87333,-4.87333zM51.88667,61.63333v63.35333c0,5.36067 4.386,9.74667 9.74667,9.74667h48.73333c5.36067,0 9.74667,-4.386 9.74667,-9.74667v-63.35333zM71.38,71.38c2.924,0 4.87333,1.94933 4.87333,4.87333v43.86c0,2.924 -1.94933,4.87333 -4.87333,4.87333c-2.924,0 -4.87333,-1.94933 -4.87333,-4.87333v-43.86c0,-2.924 1.94933,-4.87333 4.87333,-4.87333zM100.62,71.38c2.924,0 4.87333,1.94933 4.87333,4.87333v43.86c0,2.924 -1.94933,4.87333 -4.87333,4.87333c-2.924,0 -4.87333,-1.94933 -4.87333,-4.87333v-43.86c0,-2.924 1.94933,-4.87333 4.87333,-4.87333z"></path></g></g></svg>